PathFileType	4	(X/Y/Z)	OpenSim_Sub11_CSPreOp_Magnet.trc
DataRate	CameraRate	NumFrames	NumMarkers	Units	OrigDataRate	OrigDataStartFrame	OrigNumFrames
100	100	16	8	m	100	463	3701
Frame#	Time	torso_imu_offset_imu	pelvis_imu_offset_imu	tibia_r_imu_offset_imu	femur_r_imu_offset_imu	tibia_l_imu_offset_imu	femur_l_imu_offset_imu	toes_r_imu_offset_imu	toes_l_imu_offset_imu
				X1	Y1	Z1	X2	Y2	Z2	X3	Y3	Z3	X4	Y4	Z4	X5	Y5	Z5	X6	Y6	Z6	X7	Y7	Z7	X8		Y8	Z8	

463	4.62000000	-0.93066400	-0.24047900	-0.03173800	-0.54736300	0.15673800	-0.64233400	-0.69628900	-0.43627900	-0.25781200	-0.59814500	-0.57348600	-0.04296900	-0.40258800	0.71826200	0.23730500	-0.76831100	0.13818400	0.41699200	-0.60668900	-0.37377900	-0.48510700	-0.80859400	-0.02002000	0.17822300
464	4.63000000	-0.92822300	-0.25122100	-0.02026400	-0.54003900	0.15502900	-0.62695300	-0.69799800	-0.44238300	-0.26440400	-0.58764600	-0.58081100	-0.02417000	-0.38598600	0.72314500	0.25073200	-0.76342800	0.11718800	0.42089800	-0.60400400	-0.38061500	-0.47021500	-0.79541000	-0.01049800	0.22460900
465	4.64000000	-0.92602500	-0.24902300	-0.03149400	-0.54223600	0.15405300	-0.63867200	-0.69189500	-0.44238300	-0.25976600	-0.58642600	-0.58252000	-0.03051800	-0.37670900	0.73339800	0.23413100	-0.77124000	0.10278300	0.40185500	-0.60595700	-0.37768600	-0.47460900	-0.79248000	0.00024400	0.24218800
466	4.65000000	-0.93042000	-0.24682600	-0.02710000	-0.53491200	0.15625000	-0.63818400	-0.70214800	-0.44873000	-0.24414100	-0.57934600	-0.58129900	-0.02612300	-0.36499000	0.74316400	0.23071300	-0.77294900	0.09448200	0.39184600	-0.60278300	-0.37988300	-0.47534200	-0.78735400	0.01733400	0.24804700
467	4.66000000	-0.92602500	-0.25341800	-0.02710000	-0.53466800	0.14892600	-0.64038100	-0.69604500	-0.44458000	-0.25097700	-0.57617200	-0.58960000	-0.02661100	-0.35888700	0.74804700	0.21191400	-0.77612300	0.08032200	0.37426800	-0.60449200	-0.38354500	-0.47753900	-0.78784200	0.03491200	0.24340800
468	4.67000000	-0.93066400	-0.24267600	-0.02270500	-0.53173800	0.14648400	-0.63647500	-0.68750000	-0.44873000	-0.24853500	-0.57299800	-0.59301800	-0.01660200	-0.35620100	0.74755900	0.19726600	-0.77710000	0.06543000	0.36840800	-0.60180700	-0.38696300	-0.47143600	-0.79174800	0.05322300	0.23120100
469	4.68000000	-0.92822300	-0.25341800	-0.02246100	-0.54370100	0.15112300	-0.64794900	-0.68945300	-0.45288100	-0.24829100	-0.57836900	-0.58715800	-0.02343800	-0.36840800	0.75878900	0.16943400	-0.79150400	0.06469700	0.35034200	-0.61377000	-0.38037100	-0.48071300	-0.80224600	0.08422900	0.21484400
470	4.69000000	-0.92822300	-0.25122100	-0.01806600	-0.53149400	0.13671900	-0.65039100	-0.68457000	-0.46752900	-0.24121100	-0.56811500	-0.59960900	-0.02417000	-0.36914100	0.74902300	0.14746100	-0.78418000	0.04736300	0.33544900	-0.60644500	-0.39355500	-0.48266600	-0.79174800	0.09472700	0.20214800
471	4.70000000	-0.92822300	-0.24902300	-0.01806600	-0.54003900	0.13745100	-0.64306600	-0.68701200	-0.46337900	-0.23901400	-0.57324200	-0.60302700	-0.00952100	-0.38891600	0.74829100	0.13989300	-0.79467800	0.03808600	0.34326200	-0.61694300	-0.39428700	-0.47338900	-0.80566400	0.11547900	0.19653300
472	4.71000000	-0.92822300	-0.25341800	-0.01342800	-0.53442400	0.13818400	-0.64843800	-0.67846700	-0.46337900	-0.24121100	-0.57006800	-0.59960900	-0.01245100	-0.39941400	0.74877900	0.11669900	-0.79370100	0.03906200	0.33105500	-0.61328100	-0.38867200	-0.47705100	-0.80444300	0.14013700	0.17089800
473	4.72000000	-0.93261700	-0.24707000	-0.01123000	-0.53808600	0.13476600	-0.64794900	-0.67822300	-0.47168000	-0.23657200	-0.57324200	-0.60278300	-0.00561500	-0.41528300	0.73999000	0.10522500	-0.79736300	0.03198200	0.32690400	-0.61938500	-0.39550800	-0.47656200	-0.81103500	0.15210000	0.14770500
474	4.73000000	-0.93920900	-0.24926800	-0.00463900	-0.52954100	0.12963900	-0.65747100	-0.68017600	-0.47583000	-0.23852500	-0.56738300	-0.60229500	-0.01513700	-0.42651400	0.73315400	0.08056600	-0.79052700	0.02954100	0.31591800	-0.61352500	-0.39648400	-0.48364300	-0.81054700	0.16870100	0.10937500
475	4.74000000	-0.93066400	-0.24267600	-0.00683600	-0.53784200	0.12793000	-0.64770500	-0.67602500	-0.48022500	-0.22729500	-0.57128900	-0.60473600	0.00219700	-0.45141600	0.72387700	0.07666000	-0.80127000	0.02832000	0.32202100	-0.62207000	-0.39282200	-0.47387700	-0.81884800	0.18090800	0.09033200
476	4.75000000	-0.93261700	-0.24707000	0.00000000	-0.53344700	0.12548800	-0.65722700	-0.67773400	-0.48437500	-0.23168900	-0.56543000	-0.60180700	-0.00024400	-0.47265600	0.71435500	0.05859400	-0.79882800	0.02734400	0.31469700	-0.62085000	-0.39526400	-0.47827100	-0.82128900	0.19091800	0.05224600
477	4.76000000	-0.93261700	-0.24707000	0.00000000	-0.53491200	0.12646500	-0.65600600	-0.67163100	-0.48632800	-0.23144500	-0.56762700	-0.59936500	0.00708000	-0.49414100	0.70434600	0.04907200	-0.80249000	0.03418000	0.31884800	-0.62646500	-0.39160200	-0.47168000	-0.82519500	0.19970700	0.02294900
478	4.77000000	-0.93310500	-0.23828100	0.01098600	-0.53491200	0.11962900	-0.66064500	-0.67358400	-0.48632800	-0.23388700	-0.56567400	-0.60937500	0.00293000	-0.51831100	0.68017600	0.03491200	-0.80224600	0.02539100	0.31469700	-0.62500000	-0.39990200	-0.47631800	-0.82495100	0.19165000	-0.01684600
